<svg id="close-icon" xmlns="http://www.w3.org/2000/svg" width="55" height="55" viewBox="0 0 55 55">
  <path id="Icon_ionic-ios-close-circle" data-name="Icon ionic-ios-close-circle" d="M30.875,3.375a27.5,27.5,0,1,0,27.5,27.5A27.5,27.5,0,0,0,30.875,3.375Zm6.968,37.456-6.968-6.968-6.968,6.968a2.113,2.113,0,1,1-2.988-2.988l6.968-6.968-6.968-6.968a2.113,2.113,0,0,1,2.988-2.988l6.968,6.968,6.968-6.968a2.113,2.113,0,1,1,2.988,2.988l-6.968,6.968,6.968,6.968a2.123,2.123,0,0,1,0,2.988A2.1,2.1,0,0,1,37.843,40.831Z" transform="translate(-3.375 -3.375)" fill="#fff"/>
</svg>
