<svg xmlns="http://www.w3.org/2000/svg" xmlns:xlink="http://www.w3.org/1999/xlink" width="80.96" height="80.96" viewBox="0 0 80.96 80.96">
  <defs>
    <clipPath id="clip-path">
      <path id="path23" d="M0-933.331H80.96v80.96H0Z" transform="translate(0 933.331)"/>
    </clipPath>
  </defs>
  <g id="Facebook_Logo" data-name="Facebook Logo" transform="translate(0 933.331)">
    <g id="g19" transform="translate(0 -933.331)">
      <g id="g21" clip-path="url(#clip-path)">
        <g id="g27" transform="translate(11.566 11.566)">
          <path id="path29" d="M-608.836-304.418a28.914,28.914,0,0,0-28.914-28.914,28.914,28.914,0,0,0-28.914,28.914,28.925,28.925,0,0,0,21.929,28.063v-19.227H-650.7v-8.836h5.962v-3.807c0-9.841,4.454-14.4,14.116-14.4a31.885,31.885,0,0,1,6.286.718v8.01c-.682-.072-1.868-.108-3.34-.108-4.741,0-6.573,1.8-6.573,6.465v3.125h9.444l-1.622,8.836h-7.822v19.867a28.918,28.918,0,0,0,25.411-28.7" transform="translate(666.665 333.333)" fill="#fff"/>
        </g>
        <g id="g31" transform="translate(27.533 22.27)">
          <path id="path33" d="M-255.546-284.75l1.623-8.836h-9.444v-3.125c0-4.669,1.832-6.465,6.573-6.465,1.473,0,2.658.036,3.34.108v-8.01a31.881,31.881,0,0,0-6.286-.718c-9.662,0-14.116,4.562-14.116,14.4v3.807h-5.962v8.836h5.962v19.227a28.978,28.978,0,0,0,6.985.851,29.214,29.214,0,0,0,3.5-.212V-284.75Z" transform="translate(279.818 311.797)" fill="#101010"/>
        </g>
      </g>
    </g>
  </g>
</svg>
