<svg xmlns="http://www.w3.org/2000/svg" width="80.96" height="80.96" viewBox="0 0 80.96 80.96">
  <g id="Instagram_Logo" data-name="Instagram Logo" transform="translate(-807.85 -117.539)">
    <circle id="Ellipse_10" data-name="Ellipse 10" cx="28.624" cy="28.624" r="28.624" transform="translate(807.85 158.019) rotate(-45)" fill="#fff"/>
    <path id="Path_4" data-name="Path 4" d="M992.117,292.291h16.838a9.9,9.9,0,0,1,9.858,9.858V318.9a9.9,9.9,0,0,1-9.858,9.858H992.117a9.9,9.9,0,0,1-9.858-9.858v-16.75a9.9,9.9,0,0,1,9.858-9.858Zm18.234,6.369h0a2.123,2.123,0,0,1,2.094,2.094h0a2.123,2.123,0,0,1-2.094,2.094h0a2.066,2.066,0,0,1-2.094-2.094h0a2.066,2.066,0,0,1,2.094-2.094Zm-9.858,1.919h.087a10.055,10.055,0,0,1,9.946,9.946h0a10,10,0,0,1-9.946,9.946h-.087a9.923,9.923,0,0,1-9.858-9.946h0a9.98,9.98,0,0,1,9.858-9.946Zm0,3.4h.087a6.591,6.591,0,0,1,6.543,6.543h0a6.609,6.609,0,0,1-6.543,6.63h-.087a6.61,6.61,0,0,1-6.543-6.63h0a6.591,6.591,0,0,1,6.543-6.543Zm-8.288-8.55h16.663a6.814,6.814,0,0,1,6.805,6.8v16.576a6.814,6.814,0,0,1-6.805,6.805H992.2a6.814,6.814,0,0,1-6.8-6.805V302.237a6.813,6.813,0,0,1,6.8-6.8Z" transform="translate(-152.207 -152.505)" fill="#101010" fill-rule="evenodd"/>
  </g>
</svg>
