<svg xmlns="http://www.w3.org/2000/svg" width="80.96" height="80.96" viewBox="0 0 80.96 80.96">
  <g id="LinkedIn_Logo" data-name="LinkedIn Logo" transform="translate(-2104.078 -721.496)">
    <circle id="Ellipse_11" data-name="Ellipse 11" cx="28.624" cy="28.624" r="28.624" transform="translate(2104.078 761.976) rotate(-45)" fill="#fff"/>
    <path id="Path_5" data-name="Path 5" d="M2292.642,919.058h6.446V940.7h-6.446Zm3.184-10.983a3.9,3.9,0,0,1,0,7.8,3.9,3.9,0,0,1,0-7.8Zm7.082,10.983h6.367v3.024a7.368,7.368,0,0,1,6.128-3.263h1.751a7.353,7.353,0,0,1,7.321,7.322V940.7h-6.367v-1.99h0v-9.709h0a4.232,4.232,0,0,0-4.217-4.377h0a4.573,4.573,0,0,0-4.616,4.377h0v11.7h-6.367Z" transform="translate(-164.003 -162.828)" fill="#101010" fill-rule="evenodd"/>
  </g>
</svg>
