<svg xmlns="http://www.w3.org/2000/svg" width="80.964" height="80.964" viewBox="0 0 80.964 80.964">
  <g id="github-icon" transform="translate(-1705.7 -2978.017)">
    <circle id="background" cx="28.625" cy="28.625" r="28.625" transform="translate(1705.7 3018.499) rotate(-45)" fill="#fff"/>
    <path id="Icon_awesome-github" data-name="Icon awesome-github" d="M13.339,31.872c0,.161-.185.289-.418.289-.265.024-.45-.1-.45-.289,0-.161.185-.289.418-.289C13.13,31.558,13.339,31.687,13.339,31.872Zm-2.5-.362c-.056.161.1.346.346.394a.377.377,0,0,0,.5-.161c.048-.161-.1-.346-.346-.418A.413.413,0,0,0,10.838,31.51Zm3.554-.137c-.233.056-.394.209-.37.394.024.161.233.265.474.209s.394-.209.37-.37S14.625,31.349,14.392,31.373ZM19.683.563A19.28,19.28,0,0,0,0,20.181,20.158,20.158,0,0,0,13.628,39.413c1.029.185,1.391-.45,1.391-.973,0-.5-.024-3.248-.024-4.937,0,0-5.628,1.206-6.81-2.4,0,0-.917-2.34-2.235-2.943,0,0-1.841-1.262.129-1.238A4.244,4.244,0,0,1,9.182,29c1.761,3.1,4.712,2.211,5.861,1.68a4.469,4.469,0,0,1,1.286-2.71c-4.495-.5-9.029-1.15-9.029-8.885a6.094,6.094,0,0,1,1.9-4.736,7.6,7.6,0,0,1,.209-5.459c1.68-.523,5.548,2.171,5.548,2.171a18.995,18.995,0,0,1,10.1,0s3.867-2.7,5.548-2.171a7.593,7.593,0,0,1,.209,5.459,6.25,6.25,0,0,1,2.074,4.736c0,7.759-4.736,8.378-9.23,8.885A4.755,4.755,0,0,1,25.021,31.7c0,2.71-.024,6.062-.024,6.722,0,.523.37,1.158,1.391.973A19.972,19.972,0,0,0,39.88,20.181C39.88,9.029,30.835.563,19.683.563ZM7.815,28.294c-.1.08-.08.265.056.418.129.129.314.185.418.08.1-.08.08-.265-.056-.418C8.1,28.245,7.92,28.189,7.815,28.294Zm-.868-.651c-.056.1.024.233.185.314a.239.239,0,0,0,.346-.056c.056-.1-.024-.233-.185-.314C7.132,27.538,7,27.562,6.947,27.642ZM9.552,30.5c-.129.1-.08.346.1.5.185.185.418.209.523.08.1-.1.056-.346-.1-.5C9.9,30.4,9.656,30.376,9.552,30.5Zm-.917-1.182c-.129.08-.129.289,0,.474s.346.265.45.185a.367.367,0,0,0,0-.5C8.973,29.3,8.764,29.218,8.635,29.323Z" transform="translate(1726.242 2998.495)"/>
  </g>
</svg>
