<svg xmlns="http://www.w3.org/2000/svg" viewBox="0 0 28.17 20.24"><defs><style>.cls-1,.cls-2{fill:none;stroke:#000;stroke-miterlimit:10;stroke-width:1.5px;}.cls-2{stroke-linecap:square;}</style></defs><g id="Layer_2" data-name="Layer 2"><g id="KYM_Logo" data-name="KYM Logo"><g id="Final"><path class="cls-1" d="M27.42,19.49h-.28c-1-2.52-1.93-5-2.89-7.55L19.08,7.43V19.49h.27l2.9-7.55,5.17-4.51Z"/><path class="cls-2" d="M9.09,19.47,3.25,12,9.09,6.4C7.21,8.27,5.26,10.14,3.25,12c-.83.77-1.66,1.54-2.49,2.29,0,3.36,0,5.15,0,5.15h0S.75,14.18.76,6v8.37a29,29,0,0,1,3.3,1.56A28.8,28.8,0,0,1,9.09,19.47Z"/><path d="M19.77,0,14.08,3.67,8.48,0Z"/><path class="cls-1" d="M7.13,1.39l7,4.57,7-4.57L14.08,6V19.49"/></g></g></g></svg>