<svg xmlns="http://www.w3.org/2000/svg" width="80.96" height="80.96" viewBox="0 0 80.96 80.96">
  <g id="Twitter_Logo" data-name="Twitter Logo" transform="translate(-1455.742 -117.539)">
    <circle id="Ellipse_13" data-name="Ellipse 13" cx="28.624" cy="28.624" r="28.624" transform="translate(1455.742 158.019) rotate(-45)" fill="#fff"/>
    <path id="Path_8" data-name="Path 8" d="M1656.326,334.858c-1.411-7.428,7.521-11.847,12.787-6.487a18.82,18.82,0,0,0,4.419-1.974,8.133,8.133,0,0,1-3.291,4.137,14.01,14.01,0,0,0,4.043-1.128,7.858,7.858,0,0,1-3.479,3.479c1.222,17.018-17.112,27.36-31.967,18.9,0,0,7.334.376,10.436-3.2,0,0-4.513.376-6.77-5.077a4.535,4.535,0,0,0,3.385-.188s-5.266-.846-5.736-7.145a4.635,4.635,0,0,0,3.573.846s-5.829-3.479-2.539-9.778c0,0,6.205,7.9,15.137,7.616Z" transform="translate(-159.787 -181.927)" fill="#101010" fill-rule="evenodd"/>
  </g>
</svg>
