<svg xmlns="http://www.w3.org/2000/svg" width="80.96" height="80.96" viewBox="0 0 80.96 80.96">
  <g id="Youtube_Logo" data-name="Youtube Logo" transform="translate(-159.957 -721.496)">
    <circle id="Ellipse_12" data-name="Ellipse 12" cx="28.624" cy="28.624" r="28.624" transform="translate(159.957 761.976) rotate(-45)" fill="#fff"/>
    <g id="Group_11" data-name="Group 11" transform="translate(182.866 749.454)">
      <path id="Path_6" data-name="Path 6" d="M346.976,941.529c3.427-.274,7.472-.411,10.556-.411h0c3.085,0,7.061.137,10.556.411,4.044.343,6.1,1.028,6.649,5.072a51.184,51.184,0,0,1,.411,6.992h0a50.484,50.484,0,0,1-.411,6.992c-.548,4.113-2.6,4.73-6.649,5.072-3.5.343-7.472.411-10.556.411h0c-3.085,0-7.129-.069-10.556-.411-4.044-.343-6.169-.96-6.718-5.072a66.02,66.02,0,0,1-.343-6.992h0a67.017,67.017,0,0,1,.343-6.992c.548-4.044,2.673-4.73,6.718-5.072Z" transform="translate(-339.916 -941.118)" fill="#101010" fill-rule="evenodd"/>
      <path id="Path_7" data-name="Path 7" d="M450.3,997.656l9.185,5.278-9.185,5.347Z" transform="translate(-436.248 -990.459)" fill="#fff" fill-rule="evenodd"/>
    </g>
  </g>
</svg>
